# xmcd CD database file
#
# Track frame offsets:
#	150
#	21295
#	36827
#	54485
#	72122
#	89550
#	106155
#	120377
#	141095
#	153810
#
# Disc length: 2203 seconds
#
# Revision: 1
# Processed by: cddbd v1.5.2PL0 Copyright (c) Steve Scherf et al.
# Submitted via: CDex 1.51
#
DISCID=7b08990a
DTITLE=England Dan Seals - Stones
DYEAR=1980
DGENRE=Rock
TTITLE0=Stones (Dig A Little Deeper)
TTITLE1=Late At Night
TTITLE2=Love Me Like The Last Time
TTITLE3=Getting To The Point
TTITLE4=How Do I Survive
TTITLE5=Holdin' Out For Love
TTITLE6=You Could've Been The One
TTITLE7=Take You Home
TTITLE8=When It's Over
TTITLE9=Lullaby
EXTD=
EXTT0=
EXTT1=
EXTT2=
EXTT3=
EXTT4=
EXTT5=
EXTT6=
EXTT7=
EXTT8=
EXTT9=
PLAYORDER=
